<?xml version="1.0" standalone="no"?>
<!DOCTYPE svg PUBLIC "-//W3C//DTD SVG 20010904//EN"
 "http://www.w3.org/TR/2001/REC-SVG-20010904/DTD/svg10.dtd">
<svg version="1.0" xmlns="http://www.w3.org/2000/svg"
 width="700.000000pt" height="700.000000pt" viewBox="0 0 700.000000 700.000000"
 preserveAspectRatio="xMidYMid meet">
<metadata>
Created by potrace 1.14, written by Peter Selinger 2001-2017
</metadata>
<g transform="translate(0.000000,700.000000) scale(0.100000,-0.100000)"
fill="#000000" stroke="none">
<path d="M3320 6945 c-63 -25 -124 -50 -135 -55 -11 -5 -191 -77 -400 -160
-209 -83 -389 -155 -400 -160 -11 -5 -303 -122 -650 -260 -346 -138 -644 -257
-662 -265 -17 -8 -35 -15 -40 -15 -6 0 -23 -6 -39 -14 -16 -8 -200 -83 -409
-166 -209 -83 -395 -159 -412 -167 -50 -23 -113 -92 -142 -153 l-26 -55 0
-1975 0 -1975 26 -55 c28 -60 88 -125 141 -152 18 -10 137 -58 263 -109 127
-50 244 -97 260 -104 17 -7 241 -97 500 -200 259 -103 481 -192 495 -198 14
-6 27 -11 30 -12 3 -1 14 -5 25 -10 11 -4 133 -53 270 -107 138 -55 264 -106
280 -113 17 -7 275 -111 575 -231 614 -245 616 -246 740 -204 36 12 79 28 95
35 17 7 107 43 200 80 94 37 184 73 200 80 17 7 242 97 500 200 259 103 483
193 499 201 16 8 33 14 38 14 5 0 34 11 64 25 30 14 57 25 60 25 3 0 20 6 37
14 18 8 154 62 302 121 149 59 284 113 300 120 17 7 197 79 400 160 204 81
383 153 399 161 16 8 34 14 40 14 23 0 119 58 158 96 23 21 53 64 67 94 l26
55 0 1975 0 1975 -26 55 c-49 102 -101 141 -274 209 -60 24 -123 49 -140 56
-16 7 -106 43 -200 80 -93 37 -183 73 -200 80 -16 7 -286 115 -600 240 -313
125 -583 233 -600 240 -16 8 -331 134 -700 281 -796 318 -743 305 -935 229z
m1460 -911 c118 -47 229 -91 245 -98 17 -8 47 -20 68 -27 20 -7 37 -16 37 -19
0 -4 -78 -37 -172 -75 -95 -37 -192 -76 -215 -86 -23 -11 -48 -19 -55 -19 -8
0 -18 -4 -23 -8 -6 -4 -48 -23 -95 -41 -47 -18 -98 -39 -115 -46 -16 -7 -84
-34 -150 -60 -66 -26 -133 -53 -150 -60 -16 -8 -111 -46 -210 -85 -99 -39
-189 -75 -200 -80 -11 -5 -191 -77 -400 -160 -209 -83 -389 -155 -400 -160
-11 -5 -127 -51 -258 -103 l-237 -95 525 -210 524 -210 188 74 c103 41 197 79
208 84 11 5 304 122 650 260 347 138 644 257 662 265 17 8 36 15 42 15 6 0 19
4 29 10 24 13 66 30 242 100 85 33 164 65 175 70 11 5 79 32 150 60 72 28 144
58 162 66 17 7 34 14 38 14 4 0 21 6 38 14 110 51 88 53 284 -25 98 -39 183
-76 188 -83 9 -12 12 -162 4 -171 -2 -2 -85 -35 -184 -75 -99 -39 -193 -77
-210 -84 -16 -7 -573 -230 -1237 -496 l-1208 -482 0 -67 c0 -36 -1 -816 -1
-1733 l0 -1666 -102 -41 c-56 -23 -109 -41 -117 -41 -8 0 -61 18 -117 41
l-101 42 0 1729 c0 951 -2 1732 -5 1734 -3 3 -229 95 -503 205 -275 109 -508
203 -519 208 -11 5 -141 57 -290 116 -148 59 -281 112 -295 118 -14 6 -27 11
-30 12 -3 1 -14 5 -25 10 -11 4 -177 71 -370 148 -192 77 -361 144 -375 150
-14 6 -27 11 -30 12 -3 1 -14 5 -25 10 -11 4 -99 39 -195 77 -96 39 -177 71
-178 73 -8 7 -8 151 0 166 4 9 29 24 55 33 26 10 57 22 68 27 133 59 247 98
262 90 10 -5 246 -100 526 -211 348 -139 513 -200 525 -194 9 4 19 8 22 9 3 1
14 5 25 10 11 4 290 116 620 247 330 131 609 243 620 248 11 5 256 103 545
218 289 115 532 212 540 215 182 75 288 116 300 116 9 1 112 -37 230 -85z"/>
</g>
</svg>
